<?xml version="1.0" encoding="UTF-8"?>
<svg id="Layer_2" data-name="Layer 2" xmlns="http://www.w3.org/2000/svg" viewBox="0 0 160 160">
  <defs>
    <style>
      .cls-1 {
        fill: #f49bb2;
      }

      .cls-2 {
        stroke-width: 1px;
      }

      .cls-2, .cls-3, .cls-4 {
        fill: none;
        stroke: #1a1a1a;
        stroke-miterlimit: 10;
      }

      .cls-5 {
        fill: #fafafa;
      }

      .cls-3 {
        stroke-width: 2.21px;
      }

      .cls-6 {
        fill: #fc6;
      }

      .cls-7 {
        fill: #a8d5ba;
      }

      .cls-4 {
        stroke-width: .16px;
      }

      .cls-8 {
        fill: #e27591;
      }

      .cls-9 {
        fill: #e3a577;
      }

      .cls-10 {
        fill: #313131;
      }

      .cls-11 {
        fill: #1a1a1a;
      }
    </style>
  </defs>
  <ellipse class="cls-1" cx="80" cy="83.44" rx="79" ry="75"/>
  <g>
    <g>
      <path class="cls-11" d="M92.35,157.74c-.8.06-1.38.17-2.17.15,0,0-.03-.27-.07-.52.79.01,1.44-.13,2.24-.18,0-.01,0,.56,0,.55Z"/>
      <path class="cls-10" d="M90.21,158.42s.03-.02.06,0h-.06Z"/>
      <path class="cls-11" d="M90.09,157.23c0-.07,0-.14-.02-.17,0,.01,0,.06.02.17ZM89.62,153.72c-.45-4.58-.87-8.87-1.19-12.59.29-.25.58-.51.87-.78.42.27.84.54,1.26.8.52,3.64,1.03,7.84,1.48,12.32.19,1.9.31,2.98.46,4.66,0,.12.02.24.03.37-.77.06-1.48-.06-2.24-.08t-.02-.01s-.05-.02-.06,0c-.04-.39-.08-.73-.11-1.06h.01c.04.25.07.52.07.52.79.02,1.37-.09,2.17-.15,0,.01,0-.56,0-.55-.8.05-1.45.19-2.24.18,0-.02,0-.04-.01-.05v.05c-.16-1.21-.32-2.08-.48-3.64Z"/>
      <path class="cls-10" d="M90.79,158.88c-.18-.19-.76-.35-1.46-.37.28-.05.56-.1.88-.09h.06s0,0,.02.01c.14.08.42.37.5.45Z"/>
      <path class="cls-5" d="M92.5,158.14c-.15-1.68-.27-2.76-.46-4.66-.45-4.49-.96-8.68-1.48-12.32,4.44,2.82,8.64,5.03,12,6.59.53.24,1.03.47,1.51.67.21-.46.44-.97.68-1.5,1.17-2.65,2.58-6.1,4.06-9.87,1.44-3.68,2.72-7.09,3.64-9.8.52.13,1.06.26,1.6.39,2.92.73,6.12,1.59,9.5,2.51,5.24,1.43,10.16,2.69,14.22,3.53-.11.12-.21.25-.32.38h0c-1.78,2.06-4.23,4.44-7.26,7.02-4.01,3.48-9.2,7.15-15.43,10.38-.55.28-1.11.56-1.68.85-.03.02-.06.03-.1.05-2.38,1.09-4.93,2.01-7.54,3.01-.27.1-.55.2-.83.31-1.78.69-3.86.82-5.73,1.45-.24.07-.46.14-.69.21-1.57.46-2.98.78-4.75.92-.2.02-.61-.07-.94-.12Z"/>
      <path class="cls-11" d="M90.07,157.06s.02.1.02.17c-.02-.11-.02-.16-.02-.17Z"/>
      <path class="cls-10" d="M139.1,131.97c-.03.05-.07.11-.11.16-.35.49-.75,1.01-1.21,1.55h0c.46-.54.86-1.07,1.21-1.56.04-.05.07-.1.11-.15h0Z"/>
      <path class="cls-11" d="M139.09,131.97c-.04.05-.07.1-.11.15-.35.49-.75,1.02-1.21,1.56-4.06-.85-8.98-2.1-14.22-3.53-3.38-.92-6.58-1.77-9.5-2.51-.54-.13-1.08-.26-1.6-.39.26-.74.5-1.44.7-2.07.46.08.92.17,1.39.27,2.99.62,6.25,1.42,9.64,2.33,5.61,1.58,10.79,3.03,14.91,4.19Z"/>
      <path class="cls-11" d="M137.89,75.71c.52,15.12-.87,30.15-2.7,45.14-6.94-.1-14.06.25-21.13.77-.23.02-.46.03-.69.05-1.84.14-3.68.28-5.51.43-.72.07-1.44.13-2.16.19-.88.07-1.75.15-2.62.23-2.89-3.36-5.93-8.8-7.22-15.37-.65-3.34-.77-6.6-.51-9.54.29-2.93.94-5.52,1.7-7.63.07-.19.14-.37.21-.55.98.12,2.09.13,3.3-.01-.05,1.03.09,2.1.57,3.17.46,1,1.37,1.83,2.38,2.13,1.01.32,2.05.25,2.93-.07,1.8-.68,2.79-2.16,3.27-3.39.17-.45.29-.88.37-1.27.13-.69.16-1.29.15-1.75-.05.08-.1.17-.16.26l-2.23-1.18c.81-.38,1.62-.82,2.43-1.35,1.54-1.02,3.03-2.32,4.25-3.99,1.21-1.68,2.09-3.69,2.45-5.89.36-2.18.13-4.48-.76-6.43-.43-.98-1.03-1.91-1.84-2.67-.82-.75-1.79-1.27-2.77-1.54-1.95-.55-3.86-.33-5.47.22-1.61.56-2.9,1.43-3.98,2.27-1.07.86-1.93,1.7-2.67,2.45-.74.74-1.38,1.44-1.82,2.06-.18.25-.33.48-.46.69-1.17-.87-2.54-1.9-4.06-3.14-2.41-1.97-5.11-4.48-7.94-7.49-2.82-3-5.87-6.43-9.14-9.95-.36-.39-.73-.78-1.09-1.18-.8-.87-1.59-1.71-2.37-2.55-5.17-5.53-9.86-10.42-13.4-14.18-1.74-1.84-3.21-3.4-4.35-4.59-.48-.48-.89-.91-1.25-1.27-.13.26-.27.54-.42.84,0,.01-.01.01-.01.02-.73,1.41-1.69,3.03-2.84,4.75-1.19,1.71-2.59,3.52-4.22,5.28-1.65,1.74-3.35,3.26-4.98,4.56-1.64,1.28-3.19,2.34-4.54,3.17-.48.29-.93.56-1.35.8-.31.18-.6.35-.86.49.14.37.27.77.41,1.21.17.53.34,1.11.51,1.72.18.65.35,1.35.52,2.08.4,1.72.75,3.68,1.01,5.85.59,4.75.65,10.46.54,16.86-.04,3.21-.08,6.59.04,10.12.14,3.54.38,7.18,1.16,10.98.41,1.89,1.01,3.79,1.98,5.54s2.24,3.23,3.6,4.49c2.73,2.5,5.81,4.31,8.93,5.52,3.11,1.24,6.27,1.84,9.23,1.99,2.97.15,5.75-.2,8.17-.8,1.91-.47,3.61-1.13,5.09-1.83.27.94.52,2,.69,3.17.24,1.55.31,3.17.02,4.88-.31,1.82-.87,3.52-1.5,5.03-.52.06-1.05.12-1.57.18h-.01c-.51.06-1.01.11-1.52.16-9,.94-18.06,1.37-27.1,1.31-7.11.11-13.92.28-21.03.4-.28,0-.57.03-.85.03-3.29,0-1.31-47.25-1.13-52.01.56-14.57,1.24-29.88,6.74-43.71,2.65-6.68,6.47-14.15,12.09-18.78C52.63,3.05,69.41-.22,84.87,1.39c7.32.76,15.62,2.42,22.02,6.23,22.98,13.67,30.12,43.08,31,68.09Z"/>
      <path class="cls-10" d="M137.78,133.68c-.1.12-.21.25-.33.38.11-.13.21-.26.32-.38h0Z"/>
      <path class="cls-10" d="M137.45,134.07c-1.76,2.05-4.22,4.45-7.25,7.02-4.01,3.48-9.2,7.16-15.43,10.39-.55.29-1.11.56-1.69.82.57-.28,1.13-.56,1.68-.85,6.23-3.23,11.42-6.9,15.43-10.38,3.03-2.59,5.48-4.96,7.26-7.01Z"/>
      <path class="cls-11" d="M116.21,69.68c.89,1.95,1.12,4.25.76,6.43-.36,2.19-1.24,4.21-2.45,5.89-1.22,1.67-2.71,2.98-4.25,3.99-.81.52-1.62.97-2.43,1.35-1.34.63-2.67,1.1-3.94,1.44.03-.71.18-1.48.32-2.16,1.58-.59,3.23-1.4,4.79-2.5,1.33-.94,2.59-2.11,3.58-3.52.98-1.41,1.69-3.1,1.98-4.88.61-3.5-.84-7.34-3.62-8.09-1.37-.45-2.91-.38-4.21,0-1.34.38-2.53,1.05-3.58,1.74-1.05.7-1.96,1.43-2.78,2.07s-1.5,1.19-2.01,1.68c-.2.18-.37.36-.53.52-.21-.15-.42-.3-.64-.46.13-.21.28-.44.46-.69.44-.62,1.08-1.32,1.82-2.06.74-.75,1.6-1.6,2.67-2.45,1.08-.85,2.37-1.71,3.98-2.27,1.61-.55,3.52-.77,5.47-.22.98.27,1.95.78,2.77,1.54.81.75,1.41,1.69,1.84,2.67Z"/>
      <path class="cls-9" d="M110.95,67.63c2.78.74,4.23,4.59,3.62,8.09-.29,1.78-1,3.47-1.98,4.88-.99,1.41-2.25,2.59-3.58,3.52-1.56,1.1-3.21,1.9-4.79,2.5.02-.11.04-.21.06-.32.27-1.24.62-2.33.95-3.24.09-.25.19-.49.27-.71.15-.36.28-.67.4-.96-.32.14-.69.34-1.08.6t0,.01c-.38.26-.79.58-1.22.98-.94.91-1.92,2.2-2.5,3.87-.09.26-.17.53-.24.82-1.11.27-2.14.4-3.05.42-.61.04-1.18.02-1.68-.04-.18.32-.35.66-.53,1.03l-.12.24c-1.02,2.15-1.91,4.9-2.34,8.05-.42,3.14-.35,6.67.35,10.26,1.4,7.13,4.99,12.93,8.43,16.2h0s.07.07.1.1c.28.27.56.52.83.76-.14.12-.29.25-.44.37-3.47,3.03-7.81,7.07-12.55,11.47-.16.15-.32.3-.49.45l-.3.27c-.34-.22-.69-.45-1.02-.68-4.79-3.25-8.94-6.38-12.02-8.71.26-.42.51-.89.76-1.37.24-.45.47-.94.68-1.45.52-1.23.95-2.61,1.21-4.11.17-1,.22-2.01.16-2.99-.03-.97-.19-1.86-.38-2.71-.31-1.37-.75-2.58-1.23-3.59,1.54-.86,2.79-1.74,3.76-2.55,1.07-.89,1.81-1.66,2.28-2.22.45-.56.65-.91.56-1-.18-.19-1.35.76-3.61,2.12-1.05.63-2.33,1.36-3.89,2.02-.12.06-.24.11-.37.16-.33.14-.67.27-1.03.4-1.47.57-3.12,1.09-4.95,1.43-2.27.44-4.8.65-7.49.42s-5.54-.85-8.34-2.01c-2.8-1.15-5.58-2.82-7.98-5.02-1.18-1.11-2.24-2.34-3.02-3.75-.78-1.4-1.32-3.01-1.71-4.72-.74-3.45-1.05-7.04-1.26-10.46-.18-3.44-.22-6.79-.28-10-.09-6.41-.39-12.27-1.27-17.12-.39-2.22-.88-4.22-1.42-5.97,1.15-.26,2.47-.38,3.88-.42,3.01-.09,5.71.3,7.65.73,1.94.42,3.17.82,3.34.51.16-.28-.81-1.25-2.8-2.15-1.96-.92-4.95-1.64-8.26-1.54-1.59.04-3.15.26-4.53.71-.21-.57-.42-1.11-.65-1.61.48-.18.99-.38,1.54-.62,1.53-.66,3.26-1.63,5.08-2.88,1.8-1.28,3.67-2.85,5.42-4.71,1.73-1.88,3.17-3.85,4.33-5.73.9-1.53,1.62-2.99,2.16-4.31.94,1.25,2.13,2.77,3.54,4.49,2.99,3.65,7,8.18,11.56,13.17-.97.12-1.9.31-2.77.61-1.42.48-2.62,1.25-3.43,2.06-.82.81-1.28,1.66-1.47,2.27s-.14.99.01,1.05c.33.13.97-.99,2.54-1.98.79-.5,1.78-.96,2.99-1.24,1.2-.3,2.6-.44,4.11-.47h.12c.89.97,1.79,1.94,2.71,2.94,3.27,3.52,6.35,6.89,9.33,9.86,2.96,2.98,5.89,5.45,8.49,7.28,1.74,1.23,3.31,2.2,4.64,2.96.1.05.19.1.29.16.17-.18.43-.49.81-.89.16-.16.33-.34.53-.52.51-.49,1.19-1.04,2.01-1.68s1.73-1.37,2.78-2.07c1.05-.69,2.24-1.36,3.58-1.74,1.3-.38,2.84-.45,4.21,0ZM106.1,74.28c1.86-1.22,3.96-1.88,3.85-2.6-.05-.32-.63-.56-1.59-.56s-2.3.26-3.6,1.12c-1.32.87-2.13,2.16-2.34,3.19-.24,1.04.04,1.69.36,1.72.34.04.68-.42,1.19-.99.5-.57,1.21-1.27,2.13-1.88ZM85.33,77.44c0-.82-1.85-1.5-4.12-1.5s-4.13.67-4.13,1.5,1.85,1.5,4.13,1.5,4.12-.67,4.12-1.5ZM77.62,67.49c.91-2.92.04-6.02-1.86-7.86-.09-.08-.18-.17-.27-.23-.32-.29-.65-.53-1-.74-1.66-1.01-3.55-1.22-5.03-.79-1.88.51-2.98,1.72-3.47,2.6-.5.92-.48,1.51-.34,1.55.17.07.46-.37,1.09-.97.61-.57,1.66-1.31,3.06-1.49.93-.14,2.05.06,3.06.62-.17.2-.33.41-.49.63-1.03,1.49-1.9,3.66-1.62,6.23.08.65.24,1.36.69,2.07.41.71,1.34,1.4,2.35,1.43.98.05,1.85-.32,2.54-.94.66-.61,1.05-1.38,1.29-2.11ZM66.65,91.01c1.19-1.25,1.56-2.3,1.3-2.5-.26-.2-1.01.33-2.24,1.07-.01-.09-.04-.18-.06-.27-.12-.47-.35-.93-.72-1.24-1.64-1.39-4.16.12-4.85,1.81-.63-.99-1.88-1.52-3.01-1.3-1.35.26-2.03,1.14-2.22,2.19-1.36-.49-2.24-.82-2.44-.55-.19.25.41,1.15,1.79,2.13.25.18.53.36.83.53.12.38.29.73.49,1.07,2.53,3.62,5.98,3.99,8.78.81.74-.84,1.35-1.83,1.5-2.98.32-.26.6-.53.85-.78ZM60.15,80.66c1.2-.51,1.65-1.24,1.48-1.5-.18-.3-.88-.18-1.86-.17-.5,0-1.07-.03-1.67-.14-.3-.06-.6-.14-.91-.24-.12-.04-.15-.05-.15-.06h.01s-.01-.01-.01-.01c0-.01.01-.04.03-.13.11-.37.22-.73.33-1.08.2-.68.39-1.31.55-1.83.3-1.08.43-1.81.14-1.99-.28-.18-.93.25-1.67,1.2-.36.47-.75,1.08-1.1,1.78-.17.35-.34.73-.5,1.14-.03.06-.1.3-.16.47-.07.18-.12.37-.15.57-.11.4-.09.74.09,1.11l.06.09c.17.32.56.49.89.69.35.14.83.32,1,.34.47.12.93.18,1.36.18.88.01,1.65-.16,2.24-.42ZM51.86,69.69c.91-2.92.04-6.02-1.86-7.86-.09-.08-.18-.17-.27-.23-.32-.29-.65-.53-1-.74-1.66-1.01-3.55-1.22-5.03-.79-1.88.51-2.98,1.72-3.47,2.61-.5.91-.48,1.5-.34,1.55.17.06.46-.38,1.09-.98.61-.57,1.66-1.31,3.06-1.49.93-.14,2.05.07,3.05.63-.17.19-.33.4-.48.62-1.03,1.49-1.9,3.66-1.62,6.23.08.65.24,1.36.69,2.07.41.71,1.34,1.4,2.35,1.44.98.04,1.85-.32,2.54-.95.66-.61,1.05-1.38,1.29-2.11ZM50.05,81.49c0-.82-1.84-1.5-4.12-1.5s-4.12.67-4.12,1.5,1.84,1.5,4.12,1.5,4.12-.67,4.12-1.5Z"/>
      <path class="cls-10" d="M112.98,152.36c-.6.3-1.2.58-1.82.88-1.8.84-3.77,1.43-5.72,2.13,2.61-1,5.16-1.92,7.54-3.01Z"/>
      <path class="cls-11" d="M113.15,125.18c-.2.63-.44,1.33-.7,2.07-.64-.15-1.27-.3-1.87-.44.33-.7.65-1.36.94-1.94.53.1,1.07.2,1.63.31Z"/>
      <path class="cls-11" d="M110.58,126.81c.6.14,1.23.29,1.87.44-.92,2.71-2.2,6.12-3.64,9.8-1.48,3.77-2.89,7.22-4.06,9.87-.52-.3-1.07-.62-1.65-.97.83-2.73,2.02-6.14,3.45-9.8,1.39-3.57,2.8-6.8,4.03-9.35Z"/>
      <path class="cls-11" d="M111.52,124.87c-.29.58-.61,1.24-.94,1.94-1.51-.35-2.91-.66-4.17-.94-.36-.3-.75-.65-1.16-1.05.25-.26.49-.5.73-.74.17.02.36.04.54.06,1.5.16,3.18.4,5,.72Z"/>
      <path class="cls-11" d="M110.23,88.26c.01.46-.02,1.06-.15,1.75-.04.06-.07.12-.11.18-.38.59-.92,1.28-1.7,1.77.27-.34.48-.69.65-1.04.26-.52.43-1.04.56-1.5,0,0,0-.01.01-.02.23-.32.42-.61.58-.89.06-.09.11-.18.16-.26Z"/>
      <path class="cls-11" d="M109.97,90.19c.04-.06.07-.12.11-.18-.08.39-.2.81-.37,1.27-.48,1.23-1.47,2.71-3.27,3.39-.88.32-1.92.39-2.93.07-1.01-.3-1.92-1.14-2.38-2.13-.48-1.07-.62-2.14-.57-3.17.24-.02.5-.06.75-.1.15-.02.3-.05.45-.08-.06.96.05,1.94.46,2.82.36.75.95,1.29,1.67,1.53.71.24,1.51.22,2.19,0,.94-.3,1.67-.94,2.19-1.64.78-.49,1.32-1.18,1.7-1.77Z"/>
      <path class="cls-11" d="M107.84,87.34l2.23,1.18c-.16.27-.35.56-.58.89-.01.01-.01.02-.01.02l-.21.27c-.56.7-1.4,1.48-2.48,1.74-1.02.27-2.41-.18-2.75-1.3-.13-.41-.17-.88-.14-1.36,1.27-.34,2.6-.8,3.94-1.44Z"/>
      <path class="cls-11" d="M109.95,71.69c.11.71-1.99,1.38-3.85,2.6-.92.61-1.63,1.31-2.13,1.88-.51.56-.85,1.03-1.19.99-.32-.03-.6-.68-.36-1.72.21-1.03,1.02-2.32,2.34-3.19,1.3-.86,2.66-1.12,3.6-1.12s1.54.24,1.59.56Z"/>
      <path class="cls-11" d="M109.27,89.69l.21-.27c-.13.46-.3.98-.56,1.5-.17.34-.38.69-.65,1.04-.35.24-.75.43-1.2.57-.73.2-1.57.2-2.36-.11-.78-.28-1.54-1-1.82-1.88-.17-.51-.22-1.01-.21-1.48.4-.07.81-.17,1.22-.28-.03.48,0,.95.14,1.36.34,1.12,1.73,1.57,2.75,1.3,1.08-.26,1.92-1.04,2.48-1.74Z"/>
      <path class="cls-6" d="M107.07,92.53c.45-.14.85-.33,1.2-.57-.52.7-1.25,1.34-2.19,1.64-.68.22-1.48.24-2.19,0-.72-.24-1.31-.77-1.67-1.53-.41-.88-.52-1.86-.46-2.82.05-.66.18-1.33.36-1.92l.03-.12c.39-1.29,1.04-2.37,1.72-3.23-.25.61-.48,1.3-.68,2.04-.09.34-.17.68-.25,1.05-.07.32-.13.66-.18,1.02-.04.31-.07.63-.08.98-.01.47.04.97.21,1.48.28.89,1.04,1.6,1.82,1.88.79.31,1.63.31,2.36.11Z"/>
      <path class="cls-5" d="M106.41,125.87c1.26.27,2.66.58,4.17.94-1.23,2.55-2.64,5.77-4.03,9.35-1.43,3.66-2.62,7.07-3.45,9.8-3.3-1.91-7.48-4.38-11.94-7.3,5.2-4.84,9.74-9.4,13.11-12.82.11-.12.22-.23.32-.33.52.11,1.08.22,1.66.34.05.01.1.02.16.03Z"/>
      <path class="cls-11" d="M106.41,125.87c-.06-.01-.11-.02-.16-.03-.58-.12-1.14-.23-1.66-.34l.18-.18c.16-.17.33-.33.48-.49.41.39.8.74,1.16,1.05Z"/>
      <path class="cls-11" d="M105.9,81.38c-.12.28-.25.59-.4.96-.4.32-.84.72-1.29,1.23-.11.13-.23.27-.34.41.18-.46.38-.89.57-1.27.13-.25.26-.49.37-.71t0-.01c.39-.26.76-.46,1.08-.6Z"/>
      <path class="cls-11" d="M105.98,124.08c-.24.24-.48.48-.73.74-.29-.27-.59-.56-.89-.89.51.04,1.05.09,1.62.14Z"/>
      <path class="cls-11" d="M105.5,82.34c-.08.22-.18.46-.27.71-.33.91-.68,2-.95,3.24-.02.11-.04.21-.06.32-.43.17-.86.32-1.28.45.08-.36.16-.7.25-1.05.2-.74.43-1.43.68-2.04.11-.14.23-.28.34-.41.45-.5.89-.91,1.29-1.23Z"/>
      <path class="cls-11" d="M105.25,124.83c-.15.16-.32.32-.48.49l-.18.18c-.36-.07-.7-.14-1.02-.2-.24-.19-.48-.39-.72-.6.26-.22.51-.43.75-.64l.18-.15c.19.01.38.03.58.04.3.32.6.61.89.89Z"/>
      <path class="cls-11" d="M104.81,82c-.11.22-.24.46-.37.71-.19.38-.39.8-.57,1.27-.68.86-1.33,1.94-1.72,3.23l-.03.12c-.39.11-.77.22-1.14.31-.04.01-.09.02-.13.03.07-.29.15-.56.24-.82.58-1.67,1.56-2.97,2.5-3.87.43-.39.84-.71,1.22-.98Z"/>
      <path class="cls-11" d="M104.59,125.5c-.1.1-.21.21-.32.33-.23-.17-.46-.34-.7-.53.32.06.66.13,1.02.2Z"/>
      <path class="cls-11" d="M104.75,146.92c-.24.53-.47,1.04-.68,1.5-.48-.2-.98-.43-1.51-.67.16-.55.34-1.16.54-1.79.58.34,1.13.66,1.65.97Z"/>
      <path class="cls-11" d="M104.08,123.65c.09.1.18.2.28.29-.2-.01-.39-.03-.58-.04.1-.09.2-.17.3-.25Z"/>
      <path class="cls-11" d="M103.08,122.53l.18.21c.27.32.55.62.82.91-.1.08-.2.16-.3.25-.69-.04-1.31-.07-1.86-.07h0c-3.44-3.27-7.03-9.06-8.43-16.2-.7-3.59-.77-7.12-.35-10.26.43-3.15,1.32-5.9,2.34-8.05l.12-.24c.49.16,1.05.28,1.67.36-.07.18-.14.36-.21.55-.76,2.1-1.41,4.7-1.7,7.63-.26,2.94-.14,6.2.51,9.54,1.29,6.57,4.33,12.01,7.22,15.37Z"/>
      <path class="cls-11" d="M104.22,86.62c-.14.68-.29,1.45-.32,2.16-.41.11-.82.21-1.22.28,0-.34.04-.66.08-.98.05-.35.11-.69.18-1.02.42-.13.85-.28,1.28-.45Z"/>
      <path class="cls-11" d="M103.57,125.3c.24.19.47.36.7.53-3.37,3.42-7.91,7.98-13.11,12.82-.36-.23-.71-.46-1.07-.71-.08-.48-.16-.95-.23-1.4,4.74-4.4,9.08-8.44,12.55-11.47.36.07.75.15,1.16.23Z"/>
      <path class="cls-11" d="M103.78,123.9l-.18.15c-.24.21-.49.42-.75.64-.27-.24-.55-.49-.83-.76-.03-.03-.07-.06-.1-.1.55,0,1.17.03,1.86.07Z"/>
      <path class="cls-11" d="M102.85,124.7c.24.21.48.41.72.6-.41-.08-.8-.16-1.16-.23.15-.12.3-.25.44-.37Z"/>
      <path class="cls-11" d="M103.1,145.96c-.2.63-.38,1.24-.54,1.79-3.36-1.56-7.56-3.77-12-6.59-.08-.59-.16-1.17-.25-1.72.23-.21.47-.42.7-.64.05-.05.1-.09.15-.14,4.46,2.93,8.64,5.39,11.94,7.3Z"/>
      <path class="cls-11" d="M102.12,87.33c-.18.59-.31,1.26-.36,1.92-.15.03-.3.06-.45.08-.25.04-.51.08-.75.1.04-.61.14-1.21.29-1.76.04-.01.09-.02.13-.03.37-.09.75-.2,1.14-.31Z"/>
      <path class="cls-11" d="M100.85,87.67c-.15.55-.25,1.15-.29,1.76-1.21.14-2.32.13-3.3.01.18-.47.37-.93.54-1.35.91-.02,1.94-.15,3.05-.42Z"/>
      <path class="cls-10" d="M97.2,73.18c.22.16.43.31.64.46-.38.39-.64.7-.81.89-.1-.06-.19-.11-.29-.16.04-.26.18-.67.46-1.19Z"/>
      <path class="cls-11" d="M96.12,88.05c.5.06,1.07.08,1.68.04-.17.42-.36.88-.54,1.35-.62-.08-1.18-.2-1.67-.36.18-.36.35-.7.53-1.03Z"/>
      <path class="cls-11" d="M97.2,73.18c-.28.51-.42.93-.46,1.19-1.33-.75-2.9-1.73-4.64-2.96-2.6-1.83-5.53-4.31-8.49-7.28-2.98-2.97-6.06-6.34-9.33-9.86-.92-1-1.82-1.97-2.71-2.94,1.19-.03,2.34.01,3.4.1.36.39.73.78,1.09,1.18,3.27,3.52,6.32,6.95,9.14,9.95,2.83,3.01,5.53,5.51,7.94,7.49,1.52,1.24,2.89,2.27,4.06,3.14Z"/>
      <path class="cls-11" d="M91.16,138.65c-.05.05-.1.09-.15.14-.23.22-.47.43-.7.64-.07-.51-.15-1.02-.22-1.5.36.25.71.48,1.07.71Z"/>
      <path class="cls-11" d="M90.56,141.16c-.42-.26-.84-.53-1.26-.8.33-.3.67-.6,1.01-.92.09.55.17,1.13.25,1.72Z"/>
      <path class="cls-11" d="M90.31,139.44c-.34.31-.68.61-1.01.92-.26-.17-.53-.34-.79-.52-.07-.05-.14-.09-.21-.14-.04-.54-.09-1.09-.13-1.6.3-.26.6-.54.9-.82.26.18.52.35.78.52.08.05.16.11.24.15.07.48.15.99.22,1.5Z"/>
      <path class="cls-5" d="M90.21,158.42c-.32-.01-.6.04-.88.09h-.03c-.5-.01-1.07.05-1.6.24-1.97-.13-.89-.06-2.8-.11-1.82-.06-4.36-.02-6.89-.01-.42-.05-.85-.13-1.28-.27-1.85-.61-4.14-.26-5.98-.47-3.48-.4-6.41-1.01-9.4-1.9-2.99-.87-6.08-1.48-8.5-2.58-3.44-1.6-6.39-3.05-8.76-4.21,3.59-2.53,8.14-5.86,12.94-9.16,3.95-2.74,7.68-5.26,10.9-7.44.42,2.85,1.23,6.79,2.47,11.08.81,2.82,1.69,5.41,2.52,7.61.18.47.35.93.53,1.36.53-.32,1.1-.68,1.71-1.09.28-.18.57-.37.86-.57,2.06-1.39,4.42-3.16,6.97-5.21,1.74-1.42,3.57-2.98,5.44-4.65.32,3.71.74,8.01,1.19,12.59.16,1.56.32,2.43.48,3.64.03.32.07.66.11,1.06Z"/>
      <path class="cls-11" d="M90.1,157.31s.01.03.01.05h-.01v-.05Z"/>
      <path class="cls-11" d="M89.86,136.54c.07.45.15.92.23,1.4-.08-.04-.16-.1-.24-.15-.26-.17-.52-.34-.78-.52l.3-.27c.17-.15.33-.3.49-.45Z"/>
      <path class="cls-11" d="M89.3,140.35c-.29.27-.58.53-.87.78-.05-.49-.09-.98-.13-1.45.07.05.14.09.21.14.26.18.53.35.79.52Z"/>
      <path class="cls-10" d="M87.7,158.75c.53-.19,1.1-.25,1.6-.24-.52.12-1.01.27-1.6.24Z"/>
      <path class="cls-11" d="M89.07,137.26c-.3.28-.6.56-.9.82-.04-.52-.08-1.03-.12-1.51.33.23.68.46,1.02.68Z"/>
      <path class="cls-11" d="M88.3,139.69c.04.47.08.96.13,1.45-1.87,1.67-3.7,3.23-5.44,4.65-2.55,2.05-4.91,3.82-6.97,5.21-.29.2-.58.39-.86.57-.15-.54-.31-1.11-.48-1.7.1-.08.21-.17.32-.26,3.3-2.69,7.57-6.39,12.23-10.64.35.24.71.48,1.07.72Z"/>
      <path class="cls-11" d="M88.3,139.69c-.36-.24-.72-.48-1.07-.72.31-.29.63-.57.94-.88.04.51.09,1.06.13,1.6Z"/>
      <path class="cls-11" d="M88.05,136.58c.04.48.08.99.12,1.51-.31.3-.63.58-.94.88-5.01-3.41-9.19-6.89-12.15-9.64.31-.44.63-.93.95-1.46,3.08,2.33,7.23,5.46,12.02,8.71Z"/>
      <path class="cls-10" d="M87.7,158.75c-1.52.55-2.14.01-5.8-.11-1.35-.05-2.61.14-3.89-.01,2.53-.01,5.07-.05,6.89.01,1.91.05.83-.02,2.8.11Z"/>
      <path class="cls-8" d="M81.21,75.94c2.27,0,4.12.67,4.12,1.5s-1.85,1.5-4.12,1.5-4.13-.67-4.13-1.5,1.85-1.5,4.13-1.5Z"/>
      <path class="cls-11" d="M83.83,105.88c.09.09-.11.43-.56,1-.47.56-1.21,1.34-2.28,2.22-.97.8-2.22,1.69-3.76,2.55-.12-.24-.23-.47-.35-.69-.19-.33-.37-.64-.55-.93,1.56-.66,2.84-1.39,3.89-2.02,2.26-1.36,3.43-2.31,3.61-2.12Z"/>
      <path class="cls-5" d="M87.23,138.96c-4.66,4.26-8.93,7.96-12.23,10.64-.11.09-.22.18-.32.26-.57-2.06-1.24-4.39-1.94-6.85-1.31-4.57-2.47-8.66-3.36-11.39,1.37-.93,2.62-1.78,3.74-2.56.34-.23.67-.45.99-.67.31.3.63.6.97.93,2.96,2.75,7.14,6.23,12.15,9.64Z"/>
      <path class="cls-11" d="M74.78,125.57c.63-1.51,1.19-3.21,1.5-5.03.29-1.71.22-3.33-.02-4.88-.17-1.17-.42-2.23-.69-3.17.42-.19.82-.39,1.2-.59.16-.08.31-.17.46-.25.48,1.02.92,2.22,1.23,3.59.19.85.35,1.74.38,2.71.06.98.01,1.99-.16,2.99-.26,1.51-.69,2.89-1.21,4.11-.75.31-1.8.81-3.11,1.5.14-.31.28-.64.42-.98Z"/>
      <path class="cls-10" d="M78.01,158.63c-2.75.01-5.5-.01-7.32-.22-3.47-.4-6.76-1-9.75-1.89-3-.87-5.68-2-8.09-3.09-3.43-1.59-6.52-2.97-8.9-4.14.05-.02.09-.06.14-.09,2.37,1.16,5.32,2.61,8.76,4.21,2.42,1.1,5.51,1.71,8.5,2.58,2.99.9,5.92,1.5,9.4,1.9,1.84.21,4.13-.14,5.98.47.43.14.86.22,1.28.27Z"/>
      <path class="cls-11" d="M75.76,59.63c1.9,1.84,2.77,4.94,1.86,7.86-.24.73-.63,1.5-1.29,2.11-.69.61-1.56.99-2.54.94-1.01-.03-1.94-.71-2.35-1.43-.45-.71-.61-1.42-.69-2.07-.28-2.57.59-4.74,1.62-6.23.16-.22.32-.43.49-.63.46.25.89.58,1.27,1-.1.17-.2.34-.3.53-.68,1.34-1.18,3.15-.87,5.01.08.43.23.85.41,1.11.2.26.34.32.54.33.5.01,1.1-.45,1.4-1.43.63-1.97.07-4.23-1.14-5.51l-.04-.04c.45-.73.92-1.31,1.36-1.77.09.06.18.15.27.23Z"/>
      <path class="cls-11" d="M76.88,110.95c.12.22.23.45.35.69-.15.08-.3.17-.46.25-.38.2-.78.4-1.2.59-.09-.29-.18-.57-.27-.85-.13-.37-.25-.72-.37-1.06.36-.13.7-.26,1.03-.4.13-.05.25-.1.37-.16.18.28.36.59.55.93Z"/>
      <path class="cls-11" d="M77.47,125.05c-.21.51-.44,1-.68,1.45-.39.29-.83.6-1.32.95-.4-.3-.78-.58-1.13-.85,0-.01.01-.03.02-.05,1.31-.68,2.36-1.19,3.11-1.5Z"/>
      <path class="cls-11" d="M76.79,126.5c-.25.48-.5.95-.76,1.37-.19-.14-.38-.28-.56-.42.49-.34.93-.65,1.32-.95Z"/>
      <path class="cls-11" d="M75.47,127.44c.18.14.37.28.56.42-.32.53-.64,1.02-.95,1.46-.34-.32-.66-.62-.97-.93.49-.34.94-.65,1.36-.96Z"/>
      <path class="cls-11" d="M75.3,111.65c.09.27.18.55.27.85-1.48.7-3.18,1.36-5.09,1.83-2.42.6-5.2.96-8.17.8-2.96-.15-6.12-.75-9.23-1.99-3.12-1.22-6.2-3.03-8.93-5.52-1.36-1.26-2.63-2.74-3.6-4.49s-1.57-3.65-1.98-5.54c-.78-3.79-1.02-7.44-1.16-10.98-.12-3.53-.08-6.91-.04-10.12.11-6.4.05-12.11-.54-16.86-.26-2.16-.61-4.12-1.01-5.85.36-.12.75-.24,1.16-.34.08-.02.15-.04.23-.05.54,1.75,1.03,3.74,1.42,5.97.88,4.85,1.18,10.71,1.27,17.12.06,3.21.1,6.56.28,10,.21,3.42.52,7.01,1.26,10.46.39,1.71.93,3.32,1.71,4.72.78,1.41,1.84,2.65,3.02,3.75,2.4,2.2,5.18,3.87,7.98,5.02,2.8,1.17,5.65,1.78,8.34,2.01s5.22.02,7.49-.42c1.83-.34,3.48-.86,4.95-1.43.12.33.24.68.37,1.06Z"/>
      <path class="cls-11" d="M74.17,61.21c1.21,1.29,1.77,3.54,1.14,5.51-.3.98-.9,1.44-1.4,1.43-.2-.01-.34-.07-.54-.33-.18-.26-.33-.67-.41-1.11-.31-1.86.19-3.67.87-5.01.1-.19.2-.36.3-.53l.04.04ZM74.9,63.09c.16-.02.16-.26,0-.29l-.46-.07-.07-.46c-.03-.16-.26-.16-.29,0l-.08.46-.45.07c-.17.03-.17.27,0,.29l.45.08.08.46c.03.16.26.16.29,0l.07-.46.46-.08Z"/>
      <path class="cls-11" d="M74.49,58.66c.35.21.68.45,1,.74-.44.46-.91,1.04-1.36,1.77-.38-.41-.81-.74-1.27-1,.53-.65,1.1-1.15,1.63-1.52Z"/>
      <path class="cls-7" d="M74.9,62.8c.16.03.16.27,0,.29l-.46.08-.07.46c-.03.16-.26.16-.29,0l-.08-.46-.45-.08c-.17-.02-.17-.26,0-.29l.45-.07.08-.46c.03-.16.26-.16.29,0l.07.46.46.07Z"/>
      <path class="cls-11" d="M74.68,149.87c.17.59.33,1.16.48,1.7-.61.4-1.18.76-1.71,1.09-.18-.43-.35-.89-.53-1.36.54-.44,1.13-.92,1.76-1.43Z"/>
      <path class="cls-11" d="M74.34,126.6c.35.26.73.54,1.13.85-.42.3-.87.61-1.36.96-.15-.13-.29-.27-.43-.41.21-.43.43-.9.66-1.39Z"/>
      <path class="cls-10" d="M74.36,126.55s-.02.04-.02.05c-.01-.02-.03-.02-.04-.03.02-.01.04-.02.06-.02Z"/>
      <path class="cls-11" d="M74.3,126.57s.03.01.04.03c-.23.49-.45.96-.66,1.39-.25-.24-.49-.48-.71-.71.47-.24.91-.48,1.33-.7Z"/>
      <path class="cls-11" d="M74.11,128.4c-.32.22-.65.44-.99.67.18-.34.36-.7.56-1.09.14.14.28.28.43.41Z"/>
      <path class="cls-11" d="M72.6,48.89c.78.84,1.57,1.68,2.37,2.55-1.06-.09-2.21-.13-3.4-.1-.71-.77-1.42-1.55-2.1-2.3.62-.08,1.26-.12,1.91-.14.41-.01.82-.01,1.22,0Z"/>
      <path class="cls-11" d="M74.68,149.87c-.63.51-1.22.99-1.76,1.43-.83-2.19-1.71-4.79-2.52-7.61-1.24-4.29-2.05-8.23-2.47-11.08.5-.34.98-.66,1.45-.99.89,2.73,2.05,6.82,3.36,11.39.7,2.46,1.37,4.79,1.94,6.85Z"/>
      <path class="cls-11" d="M73.68,127.99c-.2.38-.38.74-.56,1.09-1.12.77-2.37,1.63-3.74,2.56-.25-.76-.47-1.41-.68-1.94,1.57-.92,3.01-1.72,4.27-2.41.22.23.46.47.71.71Z"/>
      <path class="cls-11" d="M74.49,58.66c-.53.37-1.1.87-1.63,1.52-1.01-.56-2.13-.76-3.06-.62-1.4.18-2.45.92-3.06,1.49-.63.59-.92,1.04-1.09.97-.14-.04-.16-.63.34-1.55.49-.88,1.59-2.08,3.47-2.6,1.48-.42,3.37-.21,5.03.79Z"/>
      <path class="cls-11" d="M72.6,48.89c-.4-.01-.81-.01-1.22,0-.65.02-1.29.06-1.91.14-4.56-4.99-8.57-9.52-11.56-13.17-1.41-1.72-2.6-3.24-3.54-4.49.14-.33.27-.66.38-.98.03-.09.07-.18.1-.27,1.14,1.19,2.61,2.75,4.35,4.59,3.54,3.75,8.23,8.64,13.4,14.18Z"/>
      <path class="cls-11" d="M71.57,51.33h-.12c-1.51.03-2.91.17-4.11.47-1.21.28-2.2.73-2.99,1.24-1.57,1-2.21,2.11-2.54,1.98-.15-.06-.2-.43-.01-1.05s.65-1.46,1.47-2.27c.81-.81,2.01-1.58,3.43-2.06.87-.3,1.8-.49,2.77-.61.68.75,1.39,1.53,2.1,2.3Z"/>
      <path class="cls-11" d="M68.7,129.69c.21.53.43,1.18.68,1.94-.47.32-.95.64-1.45.99-.13-.88-.22-1.66-.27-2.3.35-.21.7-.42,1.04-.62Z"/>
      <path class="cls-11" d="M67.95,88.52c.26.19-.11,1.25-1.3,2.5-.25.25-.53.52-.85.78.11-.75.07-1.52-.09-2.21,1.23-.73,1.98-1.27,2.24-1.07Z"/>
      <path class="cls-11" d="M67.66,130.31c.05.64.14,1.43.27,2.3-3.22,2.17-6.95,4.7-10.9,7.44-4.8,3.3-9.35,6.63-12.94,9.16-.03-.02-.07-.03-.1-.05,0,.01-.17.08-.17.08.04.02.08.04.13.06-.04.04-.09.07-.13.1-.02-.01-.05-.02-.07-.03-.06-.04-.12-.06-.18-.1-.53-.31-.95-.72-1.43-.99,3.55-2.91,8.27-6.65,13.52-10.25,4.32-2.99,8.46-5.61,12-7.72Z"/>
      <path class="cls-11" d="M65.71,89.58c.16.69.2,1.46.09,2.21-1.19,1.01-2.84,2.02-5.04,2.45-1.51.23-2.83-.09-3.91-.48-.69-.25-1.3-.55-1.82-.88-.22-.64-.3-1.34-.21-1.97.01-.05.01-.09.03-.14l.15.06c1.68.67,3.52,1.2,5.34.97.11-.01.21-.02.32-.04,1.75-.29,3.4-1.23,4.92-2.1.04-.03.09-.05.13-.08Z"/>
      <path class="cls-8" d="M65.71,89.58s-.09.05-.13.08c-1.52.88-3.17,1.81-4.92,2.1-.11.02-.21.03-.32.04l-.26-1.92c.69-1.69,3.21-3.2,4.85-1.81.37.31.6.76.72,1.24.02.09.05.18.06.27Z"/>
      <path class="cls-8" d="M65.8,91.8c-.15,1.15-.76,2.14-1.5,2.98-2.8,3.18-6.25,2.81-8.78-.81-.2-.33-.37-.68-.49-1.07.52.32,1.13.62,1.82.88,1.08.39,2.4.71,3.91.48,2.2-.43,3.85-1.45,5.04-2.45Z"/>
      <path class="cls-11" d="M61.63,79.16c.17.26-.28.99-1.48,1.5-.59.26-1.36.43-2.24.42-.43,0-.89-.06-1.36-.18-.17-.02-.65-.2-1-.34-.33-.2-.72-.37-.89-.69l-.06-.09c-.18-.36-.2-.7-.09-1.11.03-.2.08-.39.15-.57.06-.17.13-.41.16-.47.16-.4.33-.78.5-1.14.35-.7.74-1.31,1.1-1.78.74-.95,1.39-1.38,1.67-1.2.29.18.16.92-.14,1.99-.16.52-.35,1.15-.55,1.83-.11.34-.22.7-.33,1.08-.02.09-.03.12-.03.13h0s.03.03.15.07c.31.1.61.18.91.24.6.11,1.17.14,1.67.14.98-.01,1.68-.13,1.86.17Z"/>
      <path class="cls-8" d="M60.08,89.89l.26,1.92c-1.82.23-3.66-.29-5.34-.97l-.15-.06c.19-1.06.87-1.93,2.22-2.19,1.13-.22,2.38.31,3.01,1.3Z"/>
      <rect class="cls-10" x="57.04" y="78.54" width=".01" height=".01"/>
      <path class="cls-11" d="M54.85,30.12c-.03.09-.07.18-.1.27-.11.31-.24.64-.38.98-.46-.62-.86-1.18-1.2-1.66,0-.01.01-.01.01-.02.15-.29.29-.57.42-.84.36.36.77.78,1.25,1.27Z"/>
      <path class="cls-11" d="M54.85,90.78c-.02.05-.02.09-.03.14-.09.63,0,1.33.21,1.97-.3-.17-.58-.35-.83-.53-1.38-.99-1.98-1.88-1.79-2.13.2-.27,1.08.06,2.44.55Z"/>
      <path class="cls-11" d="M53.17,29.71c.34.48.74,1.04,1.2,1.66-.54,1.32-1.26,2.78-2.16,4.31-1.16,1.88-2.6,3.85-4.33,5.73-1.75,1.86-3.62,3.43-5.42,4.71-1.82,1.25-3.55,2.21-5.08,2.88-.55.24-1.06.44-1.54.62-.2-.48-.41-.94-.6-1.35.42-.24.87-.51,1.35-.8,1.35-.82,2.9-1.89,4.54-3.17,1.63-1.3,3.33-2.82,4.98-4.56,1.63-1.76,3.03-3.57,4.22-5.28,1.15-1.72,2.11-3.34,2.84-4.75Z"/>
      <path class="cls-11" d="M49.28,52.06c1.99.91,2.96,1.87,2.8,2.15-.17.31-1.4-.09-3.34-.51-1.94-.43-4.64-.82-7.65-.73-1.41.04-2.73.16-3.88.42-.05-.17-.1-.32-.15-.48-.18-.58-.37-1.15-.57-1.67,1.38-.45,2.94-.67,4.53-.71,3.31-.1,6.3.62,8.26,1.54Z"/>
      <path class="cls-11" d="M50,61.84c1.9,1.84,2.77,4.94,1.86,7.86-.24.73-.63,1.5-1.29,2.11-.69.62-1.56.99-2.54.95-1.01-.04-1.94-.72-2.35-1.44-.45-.71-.61-1.42-.69-2.07-.28-2.57.59-4.74,1.62-6.23.15-.22.31-.43.48-.62.46.25.9.58,1.28,1-.1.17-.2.34-.3.52-.68,1.34-1.18,3.16-.87,5.01.08.43.22.85.41,1.11s.34.32.54.33c.5.02,1.1-.45,1.4-1.43.63-1.97.07-4.23-1.14-5.5l-.04-.04c.44-.73.92-1.32,1.36-1.78.09.06.18.15.27.23Z"/>
      <path class="cls-11" d="M48.41,63.43c1.21,1.28,1.77,3.53,1.14,5.5-.3.98-.9,1.45-1.4,1.43-.2-.01-.35-.07-.54-.33s-.33-.67-.41-1.11c-.31-1.85.19-3.67.87-5.01.1-.18.2-.35.3-.52l.04.04ZM49.2,65.29c.17-.03.17-.26,0-.29l-.45-.07-.08-.46c-.03-.17-.26-.17-.29,0l-.07.46-.46.07c-.16.03-.16.26,0,.29l.46.07.07.46c.03.16.26.16.29,0l.08-.46.45-.07Z"/>
      <path class="cls-7" d="M49.2,65c.17.03.17.26,0,.29l-.45.07-.08.46c-.03.16-.26.16-.29,0l-.07-.46-.46-.07c-.16-.03-.16-.26,0-.29l.46-.07.07-.46c.03-.17.26-.17.29,0l.08.46.45.07Z"/>
      <path class="cls-11" d="M48.73,60.86c.35.21.68.45,1,.74-.44.46-.92,1.05-1.36,1.78-.38-.41-.82-.74-1.28-1,.53-.65,1.11-1.16,1.64-1.53Z"/>
      <ellipse class="cls-8" cx="45.93" cy="81.49" rx="4.12" ry="1.5"/>
      <path class="cls-11" d="M48.73,60.86c-.53.37-1.11.88-1.64,1.53-1-.56-2.12-.77-3.05-.63-1.4.18-2.45.92-3.06,1.49-.63.59-.92,1.04-1.09.98-.14-.05-.16-.64.34-1.55.49-.89,1.59-2.09,3.47-2.61,1.48-.42,3.37-.21,5.03.79Z"/>
      <path class="cls-11" d="M44.09,149.21c-.05.03-.09.07-.14.09-.05-.02-.09-.04-.13-.06,0,0,.17-.07.17-.08.03.02.07.03.1.05Z"/>
      <path class="cls-10" d="M43.57,149.27c.06.04.12.06.18.1-.67-.32-1.29-.52-1.86-.79l.16-.34s.06.03.09.05c-.06.05-.11.09-.17.14.52.25,1.01.55,1.6.85Z"/>
      <path class="cls-11" d="M43.57,149.27c-.59-.29-1.08-.59-1.6-.85.06-.05.11-.09.17-.14.48.26.9.67,1.43.99Z"/>
      <path class="cls-11" d="M37.21,53.38c-.08.01-.15.03-.23.05-.41.1-.8.22-1.16.34-.17-.73-.34-1.43-.52-2.08.33-.15.68-.3,1.05-.42.05-.02.09-.03.14-.04.2.52.39,1.09.57,1.67.05.16.1.31.15.48Z"/>
      <path class="cls-11" d="M36.49,51.23c-.05.01-.09.02-.14.04-.37.12-.72.27-1.05.42-.17-.61-.34-1.19-.51-1.72.32-.1.67-.22,1.05-.35.23.5.44,1.04.65,1.61Z"/>
      <path class="cls-11" d="M35.24,48.27c.19.41.4.87.6,1.35-.38.13-.73.25-1.05.35-.14-.43-.27-.84-.41-1.21.26-.14.55-.31.86-.49Z"/>
    </g>
    <g>
      <path class="cls-2" d="M76.5,125.37c-.57.07-1.15.14-1.72.2-.52.06-1.05.12-1.57.18h-.01c-.51.06-1.01.11-1.52.16-9,.94-18.06,1.37-27.1,1.31-7.11.11-13.92.28-21.03.4-.28,0-.57.03-.85.03-3.29,0-1.31-47.25-1.13-52.01.56-14.57,1.24-29.88,6.74-43.71,2.65-6.68,6.47-14.15,12.09-18.78C52.63,3.05,69.41-.22,84.87,1.39c7.32.76,15.62,2.42,22.02,6.23,22.98,13.67,30.12,43.08,31,68.09.52,15.12-.87,30.15-2.7,45.14-6.94-.1-14.06.25-21.13.77-.23.02-.46.03-.69.05-1.84.14-3.68.28-5.51.43-.72.07-1.44.13-2.16.19-.88.07-1.75.15-2.62.23-.33.02-.66.05-.99.08"/>
      <path class="cls-4" d="M48.67,64.46l.08.46.45.07c.17.03.17.26,0,.29l-.45.07-.08.46c-.03.16-.26.16-.29,0l-.07-.46-.46-.07c-.16-.03-.16-.26,0-.29l.46-.07.07-.46c.03-.17.26-.17.29,0Z"/>
      <path class="cls-4" d="M74.37,62.27l.07.46.46.07c.16.03.16.27,0,.29l-.46.08-.07.46c-.03.16-.26.16-.29,0l-.08-.46-.45-.08c-.17-.02-.17-.26,0-.29l.45-.07.08-.46c.03-.16.26-.16.29,0Z"/>
    </g>
  </g>
  <ellipse class="cls-3" cx="80" cy="83.44" rx="79" ry="75"/>
</svg>